<?xml version="1.0" encoding="utf-8"?>
<!-- Generator: Adobe Illustrator 16.0.0, SVG Export Plug-In . SVG Version: 6.00 Build 0)  -->
<!DOCTYPE svg PUBLIC "-//W3C//DTD SVG 1.1//EN" "http://www.w3.org/Graphics/SVG/1.1/DTD/svg11.dtd">
<svg version="1.1" xmlns="http://www.w3.org/2000/svg" xmlns:xlink="http://www.w3.org/1999/xlink" x="0px" y="0px" width="557px"
	 height="701px" viewBox="0 0 557 701" enable-background="new 0 0 557 701" xml:space="preserve">

	
<g id="Layer_2">
	<g>
		<polygon fill="#F15A24" stroke="#4D4D4D" stroke-miterlimit="10" points="113.984,127.54 114.225,127.68 116.634,123.439 
			112.242,120.944 98.268,145.546 102.659,148.042 103.315,146.887 102.83,146.603 		"/>
		<polygon fill="#C69C6D" stroke="#4D4D4D" stroke-miterlimit="10" points="199.192,177.387 114.225,127.68 113.984,127.54 
			102.83,146.603 103.315,146.887 188.041,196.452 		"/>
	</g>
	<polygon fill="#A67C52" stroke="#4D4D4D" stroke-miterlimit="10" points="331.881,221.824 337.97,211.483 316.633,198.918 
		310.544,209.259 322.171,216.106 300.457,250.114 310.096,256.268 331.952,222.037 328.504,219.835 	"/>
	
		<rect x="259.905" y="240.331" transform="matrix(0.8316 0.5554 -0.5554 0.8316 185.1754 -118.0273)" fill="#C69C6D" stroke="#4D4D4D" stroke-miterlimit="10" width="54.607" height="12"/>
	<polygon fill="#39B54A" stroke="#4D4D4D" stroke-miterlimit="10" points="321.014,180.21 237.028,127.08 217.408,158.093 
		301.395,211.224 301.875,210.463 309.549,214.305 319.394,194.638 313.692,191.784 	"/>
	
		<rect id="Rizal_38_" x="246.489" y="338.266" transform="matrix(-0.8524 -0.5228 0.5228 -0.8524 355.1646 818.4392)" opacity="0.8" fill="#39B54A" stroke="#4D4D4D" stroke-miterlimit="10" width="93.173" height="41.67"/>
	
		<rect id="Aden_2_" x="298.546" y="261.813" transform="matrix(-0.8503 -0.5263 0.5263 -0.8503 483.6979 723.7548)" opacity="0.8" fill="#39B54A" stroke="#4D4D4D" stroke-miterlimit="10" width="92.486" height="62.535"/>
	
		<rect id="Rizal_18_" x="292.842" y="423.08" transform="matrix(0.4785 -0.8781 0.8781 0.4785 -201.1353 549.1662)" fill="#39B54A" stroke="#4D4D4D" stroke-miterlimit="10" width="137.845" height="41.671"/>
	<polygon fill="#39B54A" stroke="#4D4D4D" stroke-miterlimit="10" points="293.809,422.147 234.229,385.717 217.132,413.682 
		247.691,432.367 225.258,472.25 238.32,479.598 260.485,440.189 276.71,450.11 	"/>
	<polygon fill="#39B54A" stroke="#4D4D4D" stroke-miterlimit="10" points="472.606,609.982 456.874,595.915 452.255,601.081 
		441.667,591.615 415.928,620.401 411.867,616.681 422.587,606.239 410.944,594.287 399.545,605.394 394.712,600.967 
		405.117,589.667 389.978,575.725 390.791,574.842 380.637,565.49 359.972,587.934 359.714,587.69 337.169,611.693 352.36,625.961 
		358.779,619.128 369.095,628.627 382.732,613.818 382.812,613.891 386.13,610.287 387.95,611.955 381.979,618.24 390.748,626.568 
		396.87,620.125 407.483,629.846 407.446,629.887 419.581,640.736 419.581,640.736 433.767,653.422 	"/>
	<g>
		<polygon fill="#FBB03B" stroke="#4D4D4D" stroke-miterlimit="10" points="344.241,538.01 329.214,541.892 329.349,542.436 
			304.165,548.693 304.087,548.381 304.002,548.403 309.667,570.334 349.905,559.941 		"/>
		<polygon fill="#8CC63F" stroke="#4D4D4D" stroke-miterlimit="10" points="329.349,542.436 329.214,541.892 325.491,526.908 
			300.307,533.166 304.087,548.381 304.165,548.693 		"/>
	</g>
	<polygon fill="#C69C6D" stroke="#4D4D4D" stroke-miterlimit="10" points="236.045,487.955 241.64,479.667 190.228,444.967 
		190.215,444.332 151.897,445.125 151.909,445.7 151.866,445.676 146.17,455.687 154.091,460.193 157.034,455.021 186.35,454.413 	
		"/>
	<polygon fill="#39B54A" stroke="#4D4D4D" stroke-miterlimit="10" points="138.018,450.995 116.598,488.343 109.018,483.995 
		96.833,505.241 96.854,505.202 94.715,502.402 78.5,498 78.5,527 78.5,531 78.5,533.5 80.912,533.5 76.509,540.927 99.407,553.936 
		110.226,535.01 118.072,539.479 161.183,464.297 	"/>
	<polygon fill="#39B54A" stroke="#4D4D4D" stroke-miterlimit="10" points="201.066,108.574 148.942,78.637 140.02,94.171 
		146.163,97.699 143.02,103.171 189.396,129.807 198.318,114.273 197.923,114.046 	"/>
	
		<rect x="194.987" y="115.117" transform="matrix(0.8345 0.551 -0.551 0.8345 108.3949 -94.3024)" fill="#39B54A" stroke="#4D4D4D" stroke-miterlimit="10" width="32.381" height="36.341"/>
	<polygon fill="#39B54A" stroke="#4D4D4D" stroke-miterlimit="10" points="265.267,75.065 231.434,52.555 231.55,52.396 
		201.796,30.522 168.496,75.821 188.258,90.35 188.211,90.419 189.69,91.403 198.249,97.695 198.543,97.293 234.541,121.244 	"/>
	<polygon fill="#39B54A" stroke="#4D4D4D" stroke-miterlimit="10" points="234.296,654.75 233.004,658.664 225.423,655.125 
		206,695.5 220,695.5 221.129,695.5 236.868,695.5 249.697,657.236 	"/>
	<polygon fill="#39B54A" stroke="#4D4D4D" stroke-miterlimit="10" points="249.146,501.764 256.848,506.344 256.124,507.562 
		267.206,514.151 303.945,452.371 292.862,445.781 279.74,467.848 256.727,454.162 238.187,485.34 213.707,472.179 198.75,500 
		221.278,512.111 216.223,521.515 189.179,506.976 193.079,499.733 181.264,493.37 169.699,514.846 172.741,516.483 
		166.847,527.428 178.662,533.791 178.776,533.578 229.379,560.781 234.137,551.931 272.34,572.469 286.685,545.784 
		239.203,520.258 	"/>
	<path fill="#39B54A" stroke="#4D4D4D" stroke-miterlimit="10" d="M78.5,480v-52l8.917-3.858L99,429.5h6l5.333-2.25
		c0,0,12.333,0.541,16.667,7.875s7.667,10.605,6.333,12.271s-19.667,27.907-19.667,27.907L101.965,488.5H95l-4.035,4.417L84,494.459
		l-2.883-1.396l-2.367-1.697"/>
	<polygon fill="#39B54A" stroke="#4D4D4D" stroke-miterlimit="10" points="240.183,335.282 222.784,325.302 225.729,320.168 
		206.834,309.331 181.286,353.875 180,352.334 171.667,346.667 161.183,364.186 169.667,369.667 171.854,370.322 146.836,413.941 
		165.731,424.776 167.313,422.019 184.713,431.996 	"/>
	<polygon fill="#39B54A" stroke="#4D4D4D" stroke-miterlimit="10" points="151.309,333.114 119.195,322.302 119.157,322.415 
		94.701,313.198 67.3,385.91 72.978,388.05 70.156,395.34 74.588,397.055 72.156,403.34 106.946,416.803 109.378,410.518 
		116.355,413.218 119.4,405.35 126.216,407.645 	"/>
	<polygon fill="#39B54A" stroke="#4D4D4D" stroke-miterlimit="10" points="210.61,173.504 125.78,198.789 126.637,201.664 
		125.794,201.785 96.674,275.333 103.935,277.236 108.5,279 108.5,286 123.75,291.333 146.711,235 141.604,230.533 146.805,216.103 
		157.486,212.67 176.715,277.236 205.496,268.669 185.047,199.975 195.993,196.638 197.5,197.691 197.5,200 212.017,206.4 
		209.129,216.152 257.112,243.766 258.969,242.156 262.986,236.715 263.803,237.2 265.02,235.179 275.999,216.893 212.11,178.539 	
		"/>
	
		<rect x="92.755" y="295.23" transform="matrix(0.3113 -0.9503 0.9503 0.3113 -211.1433 311.1174)" fill="#C69C6D" stroke="#4D4D4D" stroke-miterlimit="10" width="32.637" height="12"/>
	<polygon fill="#C69C6D" stroke="#4D4D4D" stroke-miterlimit="10" points="321.043,314.802 316.355,321.968 313.043,319.802 
		300.425,339.091 303.737,341.258 303.706,341.306 313.748,347.875 331.085,321.371 	"/>
	<path fill="#39B54A" stroke="#4D4D4D" stroke-miterlimit="10" d="M240.347,695l7.226-36.75c0,0,12.927-10,21.927,1.75v35"/>
	<ellipse fill="#39B54A" stroke="#4D4D4D" stroke-miterlimit="10" cx="217.833" cy="295.406" rx="7.167" ry="6.928"/>
	<path fill="#009245" stroke="#4D4D4D" stroke-miterlimit="10" d="M407.418,316.871l0.01-0.047l2.239-3.823l-1.264-0.832
		l0.098-0.467l-8.785-5.246l-6.268-4.122l-0.171,0.277l-0.262-0.157l-0.973,1.682l-0.02,0.5l-12.053,19.471l5.698,7.23
		l-7.977,11.659l-0.541,0.666l0.055,0.044L377,344.006l1.55,0.795l9.588,7.79l5.634-6.935l3.426-4.042
		c0.561,0.046,1.105-0.263,1.606-1.083c3.084-5.051,12.032-8.364,11.483-11.355C409.737,326.183,407.418,316.871,407.418,316.871z"
		/>
	
		<rect x="288.659" y="425.254" transform="matrix(-0.5064 0.8623 -0.8623 -0.5064 837.1346 384.848)" fill="#754C24" stroke="#4D4D4D" stroke-miterlimit="10" width="39.525" height="13.526"/>
	
		<rect x="314.435" y="408.918" transform="matrix(0.8405 0.5419 -0.5419 0.8405 277.9859 -113.3414)" fill="#C69C6D" stroke="#4D4D4D" stroke-miterlimit="10" width="34.078" height="13"/>
	<path display="none" fill="none" stroke="#FF0000" stroke-width="2" stroke-miterlimit="10" d="M206-8.89
		c0,0-172.385,213.831-172.385,265.158S39,466.144,39,466.144S35.203,586.873,210.667,598.58c0,0-75.687,76.346-40.124,94.42
		s149.284,34.572,148.671-29.924c0,0,142.971,53.844,161.378-8.326s-85.133-122.944-118.829-106.057
		c0,0,97.947-109.764,31.892-292.425C327.6,73.606,206-8.89,206-8.89z"/>
	<rect x="31" y="18" fill="none" stroke="#FF0000" stroke-width="2" stroke-miterlimit="10" width="465" height="683"/>
</g>
<g id="Layer_3" display="none">
</g>
</svg>
