<?xml version="1.0" encoding="utf-8"?>
<!-- Generator: Adobe Illustrator 16.0.0, SVG Export Plug-In . SVG Version: 6.00 Build 0)  -->
<!DOCTYPE svg PUBLIC "-//W3C//DTD SVG 1.1//EN" "http://www.w3.org/Graphics/SVG/1.1/DTD/svg11.dtd">
<svg version="1.1" xmlns="http://www.w3.org/2000/svg" xmlns:xlink="http://www.w3.org/1999/xlink" x="0px" y="0px" width="768px"
	 height="1024px" viewBox="0 0 768 1024" enable-background="new 0 0 768 1024" xml:space="preserve">
<g id="Decoratives">
	<line id="Line1_2_" fill="none" stroke="#B3B3B3" stroke-miterlimit="10" x1="391.746" y1="383.602" x2="421.08" y2="403.593"/>
	<line id="Line3_2_" fill="none" stroke="#B3B3B3" stroke-miterlimit="10" x1="372.924" y1="476.22" x2="524.924" y2="579.41"/>
	<line id="Line2_1_" fill="none" stroke="#B3B3B3" stroke-miterlimit="10" x1="372.924" y1="477.247" x2="421.08" y2="403.593"/>
</g>
<g id="Buildings">
	<path id="Fountain4" fill="#999999" d="M342.175,492.098l14.506,7.102c0,0-9.373,21.227-27.734,19.634l-1.214-14.604
		C327.733,504.229,338.881,506.845,342.175,492.098z"/>
	<path id="Fountain3" fill="#999999" d="M314.974,486.571l-17.641,3.852c0,0-3.598-26.072,26.626-28.265l-1.626,15.72
		C322.333,477.878,316.45,479.085,314.974,486.571z"/>
	<path id="Fountain2" fill="#999999" d="M313.39,490.979l-26.652,2.128c0,0-1.349,25.37,29,27.269l8.222-17.637
		C323.959,502.739,315.275,500.144,313.39,490.979z"/>
	<polygon id="GSteps" fill="#CCCCCC" points="306.153,496.179 285.663,493.19 228.315,587.147 241.214,606.77 	"/>
	<polyline id="PBC_stairs" opacity="0.8" fill="#999999" points="107.082,576.871 88.886,569.345 109.886,516.011 126.219,522.011 
		107.082,576.871 	"/>
	<polyline id="Silang_shed" fill="#999999" points="156.69,441.42 148.802,467.805 160.521,481.598 172.629,489.865 184.302,493.19 
		195.802,491.357 202.3,467.313 174.469,455.813 176.973,450.35 156.69,441.42 	"/>
	<polygon id="Vath" fill="#808080" points="329.32,523.441 335.32,514.48 306.153,496.179 303.625,500.51 265.987,565.014 
		251.903,555.262 234.653,585.262 248.653,593.512 209.934,662.512 239.903,680.512 245.653,670.762 272.102,686.845 
		355.986,539.762 	"/>
	<polyline id="Prince_Bernard_Stairs" opacity="0.8" fill="#999999" points="192.348,645.889 215.124,654.975 237.788,612.874 
		207.912,601.785 192.348,645.889 	"/>
	<polygon id="SacredHeart" fill="#808080" points="364.698,673.551 319.901,643.062 346.912,602.073 440.408,665.286 
		412.141,704.844 387.971,688.633 336.018,765.154 341.923,768.908 376.071,716.666 418.783,743.113 383.434,796.316 
		395.764,805.144 373.489,838.178 419.816,868.481 394.986,906.678 335.07,866.452 321.595,885.497 228.315,821.524 
		237.413,808.324 229.283,802.61 251.753,768.906 273.637,783.097 267.038,792.497 308.794,820.836 317.611,807.385 
		280.534,783.449 306.146,745.55 314.885,749.757 	"/>
	<polygon id="Annex" fill="#808080" points="126.219,845.147 154.885,862.146 164.077,846.612 177.39,854.527 236.885,732.48 
		207.552,716.147 174.219,781.48 162.886,775.147 	"/>
	<polygon id="AnnexBridge" fill="#808080" points="209.617,717.297 221.073,723.676 224.136,716.147 262.386,716.147 
		305.219,750.147 317.886,752.48 324.886,742.48 267.251,702.563 218.886,702.563 	"/>
	<polyline id="Silang-Aden" fill="#999999" points="400.252,370.569 441.977,398.358 448.924,388.172 405.916,359.353 
		400.98,368.322 	"/>
	<polyline id="Perf-Aden" fill="#999999" points="470.705,317.421 478.205,304.902 499.059,316.142 475.066,358.129 
		463.184,351.593 442.225,387.175 432.85,380.426 458.061,337.621 464.955,325.671 469.996,317.921 	"/>
	<polygon id="Chapel" fill="#808080" points="275.371,209.355 304.371,161.688 351.871,193.521 324.205,244.355 	"/>
	<polygon id="DH_bldg" fill="#808080" points="208.945,131.96 224.501,108.275 298.748,164.785 273.52,206.79 209.041,155.119 
		218.255,140.414 	"/>
	<polygon id="Parking_Lot" fill="#808080" points="227.038,84.355 275.371,18.355 378.372,105.022 329.705,168.355 	"/>
	<path id="Main_gate" fill="#666666" d="M168.969,196.357l3.5-6l-12.5-7.335l-30.337,40.665l12.392,7.498l4.446-6.328
		c0,0,17.788,4.134,63.788,34.801l33.712,46.031l30-10.667l-38.667-50.667L168.969,196.357z"/>
	<polygon id="Silang" fill="#666666" points="156.69,441.42 176.973,450.35 174.469,455.813 202.3,467.313 232.635,372.813 
		227.01,369.438 230.135,349.813 242.635,344.313 270.26,445.625 318.635,431.69 288.469,328.146 300.469,324.813 320.135,338.479 
		318.469,350.813 386.635,396.813 414.635,341.813 314.635,280.813 195.635,320.313 	"/>
	<polygon id="Aden" fill="#666666" points="455.418,378.855 400.252,462.332 525.164,545.461 580.332,463.855 	"/>
	<polygon id="Perfecto" fill="#808080" points="478.34,304.906 458.783,338.106 327.591,246.862 355.257,195.239 476.09,277.862 
		466.258,297.239 	"/>
	<polygon id="CCA" fill="#808080" points="116.552,687.012 124.886,682.012 148.886,691.678 156.219,686.845 184.886,696.678 
		192.219,717.345 146.219,789.012 137.552,787.012 130.552,793.345 116.552,789.345 	"/>
	<polygon id="Hahn" fill="#808080" points="543.25,591.423 595.25,624.327 496.168,806.327 438.301,769.327 	"/>
	<polygon id="Rizal" fill="#666666" points="396.602,529.247 360.659,584.222 459.326,653.774 495.326,601.556 	"/>
	<polygon id="Aden-Research" fill="#666666" points="539.393,548.714 556.393,560.544 570.393,536.715 577.725,536.715 
		591.475,512.298 581.725,505.548 587.725,496.298 578.701,490.445 	"/>
	<polygon id="PrinceBernard" fill="#666666" points="127.15,516.011 131.483,517.678 134.816,505.678 155.15,513.344 
		151.15,525.515 197.816,543.011 201.733,532.081 222.912,539.497 219.113,550.86 224.983,552.747 185.483,664.248 175.81,661.411 
		170.681,675.817 158.983,672.081 157.316,677.345 102.15,656.011 103.816,650.581 93.149,646.248 98.654,630.886 86.816,626.414 	
		"/>
	
		<ellipse id="Fountain_1_" transform="matrix(0.9675 0.2529 -0.2529 0.9675 134.8104 -67.0253)" fill="#666666" stroke="#2E3192" stroke-width="2" stroke-miterlimit="10" cx="328.173" cy="490.979" rx="8.067" ry="8.459"/>
	<polyline id="VathStairs1" opacity="0.8" fill="#999999" points="409.723,550.07 399.05,566.394 353.851,538.998 363.224,524.527 
		414.149,552.502 	"/>
	<polygon id="Vath_Stairs2" opacity="0.8" fill="#999999" points="329.576,628.38 345.923,603.574 355.985,591.512 380.209,554.319 
		355.986,539.762 312.4,614.528 	"/>
	<path id="Rizal-Aden_Shade" fill="#999999" stroke="#999999" stroke-width="0.5" stroke-miterlimit="10" d="M453.263,571.651
		c1.44,1.055,30.218-53.931,30.218-53.931L465.268,505.6l-8.481,14.505l-9.409-6.427l-23.621,36.361L453.263,571.651z"/>
	<polygon id="Aden-SWA" opacity="0.7" fill="#999999" stroke="#999999" stroke-width="0.5" stroke-miterlimit="10" points="
		573.005,611.147 586.25,585.461 482.702,516.758 469.876,542.393 	"/>
	<polygon id="SH-Rizal_shade" opacity="0.7" fill="#999999" stroke="#999999" stroke-width="0.5" stroke-miterlimit="10" points="
		482.719,694.031 492.563,677.345 360.659,584.222 347.504,602.438 	"/>
	<path id="SideFountain" fill="#999999" d="M328.317,477.084l5.819-15.067c0,0,21.958,7.5,21.96,25.932l-14.444,2.474
		C341.653,490.423,343.294,479.09,328.317,477.084z"/>
	<polygon id="Cardjin_Hall_x2F_MM" fill="#666666" points="735.606,942.788 715.574,920.561 709.694,928.724 696.216,913.768 
		663.443,959.25 658.273,953.371 671.922,936.873 657.1,917.989 642.586,935.537 636.434,928.543 649.68,910.689 630.404,888.66 
		631.44,887.266 618.512,872.49 592.201,907.951 591.873,907.566 563.17,945.49 582.51,968.034 590.683,957.237 603.817,972.246 
		621.18,948.848 621.28,948.963 625.506,943.269 627.822,945.904 620.222,955.835 631.385,968.993 639.18,958.813 652.691,974.172 
		652.646,974.236 668.094,991.379 668.094,991.379 686.157,1011.422 	"/>
	<polygon id="SC" fill="#666666" points="365.786,955.065 364.06,961.606 353.938,956.11 328,1024 346.695,1024 348.204,1024 
		369.221,1024 386.353,959.638 	"/>
	<path id="Men_x27_sDorm" fill="#666666" d="M373.968,1022.164l9.7-61.332c0,0,16.332-16.63,29.332,3.006V1022"/>
	<polygon id="DBBuilding" fill="#808080" points="502.452,856.497 483.249,862.298 478.49,839.908 446.307,849.26 451.139,871.995 
		451.029,872.029 458.269,904.801 509.692,889.271 	"/>
</g>
</svg>
