<?xml version="1.0" encoding="utf-8"?>
<!-- Generator: Adobe Illustrator 16.0.0, SVG Export Plug-In . SVG Version: 6.00 Build 0)  -->
<!DOCTYPE svg PUBLIC "-//W3C//DTD SVG 1.1//EN" "http://www.w3.org/Graphics/SVG/1.1/DTD/svg11.dtd">
<svg version="1.1" xmlns="http://www.w3.org/2000/svg" xmlns:xlink="http://www.w3.org/1999/xlink" x="0px" y="0px" width="768px"
	 height="1024px" viewBox="0 0 768 1024" enable-background="new 0 0 768 1024" xml:space="preserve">
<g id="Decoratives">
	<path id="Ground" fill="#E6E6E6" d="M450.007,1.75H155.469L30.867,562.102l119.018,463.648h449.198l-116.707-1.028l-56.209-164.275
		c3.333-0.548,42-3.891,42-3.891l9.364,27.196l39.983,7.849l13.808,2.711l8.511-14.478l32.473,15.426l-65.043,82.451l-1.304-4.608
		l7.23,25.565l80.311-1.646l5.583,28.728h170L450.007,1.75z"/>
</g>
<g id="Pathways_x2F_Stairs_x2F_Fountain_x2F_etc">
	<polygon id="AdenPath" fill="#CCCCCC" points="419.281,383.243 440.288,397.234 395.667,462.158 453,499.416 440.5,518.918 
		364,469 	"/>
	<polygon id="VathStairs" fill="#999999" points="319.901,643.062 301.976,634.463 355.986,539.733 379.354,553.805 	"/>
	<polygon id="P-C-DH" fill="#999999" points="344.617,257.598 332.544,276.708 294.773,248.667 264.51,290.907 248.614,270.636 
		273.667,233.667 244.931,212.737 259.106,195.239 	"/>
	<path id="Fountain4" fill="#999999" d="M342.175,492.098l14.506,7.102c0,0-9.373,21.227-27.734,19.634l-1.214-14.604
		C327.733,504.229,338.881,506.845,342.175,492.098z"/>
	<path id="Fountain3" fill="#999999" d="M314.974,486.571l-17.641,3.852c0,0-3.598-26.072,26.626-28.265l-1.626,15.72
		C322.333,477.878,316.45,479.085,314.974,486.571z"/>
	<path id="Fountain2" fill="#999999" d="M313.39,490.979l-26.652,2.128c0,0-1.349,25.37,29,27.269l8.222-17.637
		C323.959,502.739,315.275,500.144,313.39,490.979z"/>
	<polygon id="GSteps" fill="#999999" points="306.153,496.179 285.663,493.19 228.315,587.147 241.214,606.77 	"/>
	<polygon id="AnnexBridge" fill="#999999" points="209.617,717.297 221.073,723.676 224.136,716.147 262.386,716.147 
		305.219,750.147 317.886,752.48 324.886,742.48 267.251,702.563 218.886,702.563 	"/>
	<path id="Silang-Aden_1_" fill="#999999" d="M398.938,370.569l42.445,29.523l7.417-11.224l-44.198-29.515L398.938,370.569"/>
	
		<ellipse id="Fountain_1_" transform="matrix(0.9675 0.2529 -0.2529 0.9675 134.8104 -67.0253)" fill="#999999" cx="328.173" cy="490.979" rx="8.067" ry="8.459"/>
	<polygon id="VathStairs1_2_" opacity="0.8" fill="#999999" points="389.151,539.169 379.652,553.805 353.16,538.032 
		362.75,522.625 	"/>
	<polygon id="Rizal-Aden_Shade" fill="#999999" points="482.046,516.932 465.786,506.112 459.429,514.712 453.604,511.274 
		427.546,547.805 450.03,562.52 	"/>
	<polygon id="Aden-SWA" opacity="0.7" fill="#999999" points="560.081,602.073 574.333,578.333 479.171,517.473 463.333,539.733 	
		"/>
	<polygon id="SH-Rizal_shade" opacity="0.7" fill="#999999" points="482.87,693.775 492.563,677.345 358.5,583.5 346,602.073 	"/>
	<polygon fill="#999999" points="204.401,464.082 176.968,454.535 178.914,448.914 158.399,441.285 150,465.954 155.899,468 
		136.167,520.376 154.893,526.918 174.323,475.083 197.383,483.738 	"/>
	<path id="SideFountain" fill="#999999" d="M328.317,477.084l5.819-15.067c0,0,21.958,7.5,21.96,25.932l-14.444,2.474
		C341.653,490.423,343.294,479.09,328.317,477.084z"/>
	<g>
		<path opacity="0.7" fill="#CCCCCC" d="M393,460.705"/>
	</g>
	<g id="MM_Stairs">
		<polygon id="InsideGround" fill="#E6E6E6" points="517.146,918.209 516.149,918.055 488.19,913.724 495.381,934.606 
			499.319,948.533 		"/>
		<path fill="#CCCCCC" d="M513.356,998.168l-7.23-25.565l1.304,4.608l65.043-82.451L540,879.334l-8.511,14.478l-13.808-2.711
			l-39.983-7.849l-9.364-27.196c0,0-38.667,3.343-42,3.891l56.209,164.275l116.707,1.028l-5.583-28.728L513.356,998.168z
			 M488.19,913.724l27.959,4.331l0.997,0.154l-17.827,30.324l-3.938-13.927L488.19,913.724z"/>
	</g>
	<polygon id="PBS_Stairs2" fill="#999999" points="104,521.25 124.826,527.346 99.317,597.262 78.75,587.25 	"/>
	<polygon id="DB-Hahn" fill="#CCCCCC" points="473.75,826.408 488.023,820.4 483.292,798.095 464.154,785.857 	"/>
	<polygon id="Perfecto-aden" fill="#999999" points="474.514,302.478 498.25,316.25 476.5,354.25 464.066,347.042 440,384.743 
		427.532,376.681 	"/>
	<polygon id="PBSStairs1" fill="#999999" points="208.091,599.459 239.711,609.447 221.144,642.535 196,633.589 	"/>
</g>
<g id="Buildings">
	<polygon id="Vath" fill="#666666" points="329.32,523.441 335.32,514.48 306.153,496.179 303.625,500.51 265.987,565.014 
		251.903,555.262 234.653,585.262 248.653,593.512 209.934,662.512 239.903,680.512 245.653,670.762 272.102,686.845 
		355.986,539.762 	"/>
	<polygon id="SacredHeart" fill="#666666" points="364.557,673.046 319.901,643.062 346,602.073 440.408,665.286 413.771,702.563 
		388.333,686.845 336.018,765.154 341.923,768.908 376.071,716.666 418.783,743.113 383.434,796.316 395.764,805.144 
		373.489,838.178 419.816,868.481 394.986,906.678 335.07,866.452 321.595,885.497 228.315,821.524 237.413,808.324 229.283,802.61 
		251.753,768.906 273.637,783.097 267.038,792.497 308.794,820.836 317.611,807.385 280.534,783.449 306.146,745.55 
		314.885,749.757 	"/>
	<polygon id="Annex" fill="#666666" points="126.219,845.147 154.885,862.146 164.077,846.612 177.39,854.527 236.885,732.48 
		207.552,716.147 174.219,781.48 162.886,775.147 	"/>
	<polygon id="Rizal" fill="#666666" points="397.002,527.815 358.5,583.5 459.326,653.774 497.75,593.75 	"/>
	<polygon id="Chapel" fill="#666666" points="275.371,209.355 304.371,161.688 351.871,193.521 322.333,242.667 	"/>
	<polygon id="DH_bldg" fill="#666666" points="208.945,131.96 224.501,108.275 298.748,164.785 273.52,206.79 209.041,155.119 
		218.255,140.414 	"/>
	<polygon id="Parking_Lot" fill="#666666" points="227.038,84.355 275.371,18.355 378.372,105.022 329.705,168.355 	"/>
	<path id="Main_gate" fill="#666666" d="M161.671,196.357l3.5-6l-15.504-7.335l-27.333,40.665l12.392,7.498l4.446-6.328
		c0,0,17.788,4.134,63.788,34.801L238.333,309l32-10.667l-42.329-53.979L161.671,196.357z"/>
	<polygon id="Silang" fill="#666666" points="158.407,441.75 178.446,449.379 176.5,455 203.825,465.696 233.702,372.805 
		228.077,369.43 231.202,349.805 243.702,344.305 271.327,445.616 319.702,431.682 289.535,328.138 301.535,324.805 
		321.202,338.471 319.535,350.805 387.701,396.805 415.701,341.805 315.702,280.805 196.702,320.305 	"/>
	<polygon id="Aden" fill="#666666" points="455.418,378.855 400.252,462.332 525.164,545.461 580.332,463.855 	"/>
	<polygon id="Perfecto" fill="#666666" points="478.34,304.906 457.454,337.169 325.333,244 355.257,195.239 476.09,277.862 
		466.258,297.239 	"/>
	<polygon id="CCA" fill="#666666" points="116.552,687.012 124.886,682.012 148.886,691.678 156.219,686.845 184.886,696.678 
		192.219,717.345 146.219,789.012 137.552,787.012 130.552,793.345 116.552,789.345 	"/>
	<polygon id="Hahn" fill="#666666" points="543.25,591.423 595.25,624.327 496.168,806.327 438.301,769.327 	"/>
	<polygon id="Aden-Research" fill="#666666" points="526.584,546.3 544.12,557.218 557.584,534.301 564.916,534.301 
		578.666,509.884 568.916,503.134 574.916,493.884 565.893,488.031 	"/>
	<polygon id="PrinceBernard" fill="#666666" points="127.15,516.011 131.483,517.678 136.537,506.327 155.15,513.344 
		151.15,525.515 197.816,543.011 201.733,532.081 222.912,539.497 219.113,550.86 224.983,552.747 185.483,664.248 175.81,661.411 
		170.681,675.817 158.983,672.081 157.316,677.345 102.15,656.011 103.816,650.581 93.149,646.248 98.654,630.886 86.816,626.414 	
		"/>
	<polygon id="Cardjin_Hall_x2F_MM" fill="#666666" points="704.606,944.788 684.574,922.561 678.694,930.724 665.216,915.768 
		632.443,961.25 627.273,955.371 640.922,938.873 626.1,919.989 611.586,937.537 605.434,930.543 618.68,912.689 599.404,890.66 
		600.44,889.266 587.512,874.49 561.201,909.951 532.17,945.85 551.51,970.034 559.683,959.237 572.817,974.246 590.18,950.848 
		590.28,950.963 594.506,945.269 596.822,947.904 589.222,957.835 600.385,970.993 608.18,960.813 621.691,976.172 621.646,976.236 
		637.094,993.379 637.094,993.379 655.157,1013.422 	"/>
	<polygon id="SC" fill="#666666" points="370.786,944.065 369.06,950.606 358.938,945.11 333,1013 351.695,1013 353.204,1013 
		374.221,1013 391.353,948.638 	"/>
	<path id="Men_x27_sDorm" fill="#666666" d="M378.968,1011.164l9.7-61.332c0,0,16.332-16.63,29.332,3.006V1011"/>
	<polygon id="DBBuilding" fill="#666666" points="512.808,811.039 464.154,829.417 481.809,883.419 531.346,862.642 	"/>
	<polygon id="AteMitz" fill="#666666" stroke="#999999" stroke-miterlimit="10" points="414.282,702.563 437.895,663.082 
		450.735,671.724 426.25,710.5 	"/>
</g>
</svg>
